<mxfile host="app.diagrams.net" agent="Mozilla/5.0 (Windows NT 10.0; Win64; x64) AppleWebKit/537.36 (KHTML, like Gecko) Chrome/128.0.0.0 Safari/537.36" version="24.7.12">
  <diagram name="Page-1" id="LyPDjLyX_83YloV64Puy">
    <mxGraphModel dx="1434" dy="746" grid="1" gridSize="10" guides="1" tooltips="1" connect="1" arrows="1" fold="1" page="1" pageScale="1" pageWidth="850" pageHeight="1100" math="0" shadow="0">
      <root>
        <mxCell id="0" />
        <mxCell id="1" parent="0" />
        <mxCell id="f_FJS0SzRyrYzlwSZuJV-1" value="&lt;div&gt;CEREMONIES&lt;/div&gt;&lt;div&gt;&lt;br&gt;&lt;/div&gt;&lt;div&gt;&lt;u&gt;&lt;b&gt;CeremonyID&lt;/b&gt;&lt;/u&gt;&lt;/div&gt;&lt;div&gt;&lt;b&gt;Date&lt;/b&gt;&lt;/div&gt;&lt;div&gt;&lt;b&gt;LocationCode&lt;/b&gt;&lt;/div&gt;&lt;div&gt;Network&lt;/div&gt;&lt;div&gt;Millions of Viewers&lt;/div&gt;" style="whiteSpace=wrap;html=1;align=center;" parent="1" vertex="1">
          <mxGeometry x="130" y="190" width="120" height="140" as="geometry" />
        </mxCell>
        <mxCell id="f_FJS0SzRyrYzlwSZuJV-2" value="&lt;div&gt;LOCATIONS&lt;/div&gt;&lt;div&gt;&lt;u style=&quot;background-color: initial;&quot;&gt;&lt;b&gt;&lt;br&gt;&lt;/b&gt;&lt;/u&gt;&lt;/div&gt;&lt;div&gt;&lt;u style=&quot;background-color: initial;&quot;&gt;&lt;b&gt;LocationCode&lt;/b&gt;&lt;/u&gt;&lt;/div&gt;&lt;div&gt;&lt;b&gt;Location (City, State Code, Country)&lt;/b&gt;&lt;/div&gt;" style="whiteSpace=wrap;html=1;align=center;" parent="1" vertex="1">
          <mxGeometry x="340" y="100" width="120" height="140" as="geometry" />
        </mxCell>
        <mxCell id="f_FJS0SzRyrYzlwSZuJV-3" value="&lt;div&gt;HOSTS&lt;/div&gt;&lt;div&gt;&lt;br&gt;&lt;/div&gt;&lt;div&gt;&lt;u&gt;&lt;b&gt;HostID&lt;/b&gt;&lt;/u&gt;&lt;/div&gt;&lt;div&gt;&lt;b&gt;Host&lt;/b&gt;&lt;/div&gt;&lt;div&gt;{Known For}&lt;/div&gt;&lt;div&gt;&lt;b&gt;[Times Hosted]&lt;/b&gt;&lt;/div&gt;" style="whiteSpace=wrap;html=1;align=center;" parent="1" vertex="1">
          <mxGeometry x="340" y="290" width="120" height="140" as="geometry" />
        </mxCell>
        <mxCell id="f_FJS0SzRyrYzlwSZuJV-6" value="" style="edgeStyle=entityRelationEdgeStyle;fontSize=12;html=1;endArrow=ERmandOne;startArrow=ERmandOne;rounded=0;exitX=1;exitY=0.25;exitDx=0;exitDy=0;entryX=0;entryY=0.25;entryDx=0;entryDy=0;" parent="1" source="f_FJS0SzRyrYzlwSZuJV-1" target="f_FJS0SzRyrYzlwSZuJV-2" edge="1">
          <mxGeometry width="100" height="100" relative="1" as="geometry">
            <mxPoint x="240" y="240" as="sourcePoint" />
            <mxPoint x="340" y="140" as="targetPoint" />
          </mxGeometry>
        </mxCell>
        <mxCell id="f_FJS0SzRyrYzlwSZuJV-8" value="" style="edgeStyle=entityRelationEdgeStyle;fontSize=12;html=1;endArrow=ERoneToMany;startArrow=ERmandOne;rounded=0;endFill=0;entryX=0;entryY=0.75;entryDx=0;entryDy=0;exitX=1;exitY=0.75;exitDx=0;exitDy=0;" parent="1" source="f_FJS0SzRyrYzlwSZuJV-1" target="f_FJS0SzRyrYzlwSZuJV-3" edge="1">
          <mxGeometry width="100" height="100" relative="1" as="geometry">
            <mxPoint x="160" y="500" as="sourcePoint" />
            <mxPoint x="260" y="400" as="targetPoint" />
          </mxGeometry>
        </mxCell>
      </root>
    </mxGraphModel>
  </diagram>
</mxfile>
